<?xml version="1.0" encoding="UTF-8"?>
<svg id="Layer_2" xmlns="http://www.w3.org/2000/svg" viewBox="0 0 206.42 397.67">
  <defs>
    <style>
      .cls-1 {
        fill: #fff;
      }
    </style>
  </defs>
  <g id="_x2018_ëîé_x5F_1">
    <g id="Wreath2">
      <path class="cls-1" d="M39.72,192.99c-.27,0-.54-.05-.79-.16-.56-.24-.97-.71-1.14-1.29-.26-.9-6.01-22.31,25.4-40.46.54-.31,1.2-.36,1.78-.12.58.24,1.01.73,1.17,1.34.06.24,6,23.99-25.48,40.47-.29.15-.61.23-.93.23ZM66.17,189.68c-.31-.55-.85-.92-1.47-1.01-.62-.09-1.25.12-1.69.55-25.94,25.36-15.06,44.68-14.58,45.49.31.52.83.88,1.43.97.1.02.21.02.31.02.49,0,.97-.18,1.35-.52,26.42-23.76,14.79-45.3,14.67-45.52ZM86.48,82.43c-33.26.21-38.4,19.93-38.6,20.77-.14.59-.01,1.21.35,1.69.37.48.93.77,1.53.79.84.03,1.67.04,2.48.04,15.35,0,24.24-5.25,29.05-9.79,5.6-5.28,7.09-10.75,7.15-10.99.16-.61.03-1.25-.36-1.74-.38-.49-.97-.78-1.59-.78h-.01ZM69.31,131.12c4.56-6.2,5.04-11.85,5.06-12.09.05-.62-.2-1.23-.66-1.65s-1.1-.59-1.72-.48c-32.68,6.18-34.2,26.5-34.25,27.36-.03.6.2,1.19.65,1.6.37.34.86.53,1.36.53.1,0,.19,0,.29-.02,16.71-2.44,25.14-9.64,29.27-15.25ZM97.5,307.83c12.66-33.21-7.53-47.06-7.74-47.19-.52-.35-1.17-.43-1.77-.22-.59.2-1.05.67-1.25,1.26-11.49,34.41,7.01,46.63,7.8,47.13.33.21.7.31,1.08.31.21,0,.43-.03.63-.1.57-.19,1.03-.63,1.25-1.19ZM13.45,95.5c-.58-.24-1.23-.2-1.78.11-.54.31-.91.86-.99,1.48-5.31,40.05,17.43,49.49,18.4,49.87.24.09.49.14.74.14.34,0,.68-.09.98-.26.53-.3.89-.81,1-1.41,6.84-38.97-18.1-49.83-18.35-49.94ZM74.22,228.53c-.42-.46-1.03-.7-1.66-.65-.62.05-1.19.4-1.52.92-19.49,30.6-4.51,46.94-3.86,47.62.38.4.91.63,1.46.63.05,0,.1,0,.15,0,.6-.05,1.15-.36,1.5-.86,20.33-29.15,4.1-47.48,3.93-47.66ZM2.95,146.01c-.61-.11-1.25.06-1.71.48-.47.42-.71,1.03-.66,1.65,3.09,40.28,27.29,44.81,28.32,44.98.11.02.22.03.33.03.48,0,.96-.17,1.33-.5.45-.4.71-.98.68-1.58-1.37-39.54-28.02-45.01-28.28-45.06ZM42.44,103c15.12-33.62-4.93-49.17-5.14-49.32-.5-.37-1.15-.5-1.75-.33-.6.17-1.09.61-1.32,1.19-13.99,34.94,4.41,48.7,5.2,49.27.35.25.76.38,1.18.38.17,0,.35-.02.52-.07.58-.16,1.07-.57,1.31-1.12ZM80.65,67.23c8.62,0,14.75-2.37,18.78-4.81,6.58-4,9.18-9.04,9.28-9.25.28-.56.29-1.22.01-1.78-.27-.56-.79-.97-1.4-1.09-32.57-6.74-41.72,11.47-42.09,12.25-.26.54-.26,1.18,0,1.72.26.55.75.95,1.33,1.1,5.29,1.33,9.98,1.87,14.09,1.87ZM61.57,333.83c0,.63.27,1.22.76,1.61,14.44,11.42,26.4,14.59,35.22,14.59,10.54,0,16.59-4.52,17.04-4.86.48-.37.77-.93.78-1.54.02-.6-.24-1.18-.7-1.58-29.97-25.82-52.07-9.96-52.29-9.8-.5.37-.8.96-.81,1.58ZM63.06,60.27c23.07-28.74,7.57-48.83,7.41-49.03-.39-.49-.98-.77-1.61-.76-.63.01-1.21.31-1.58.82-22.31,30.31-7.95,48.25-7.33,49,.38.46.95.73,1.55.73h.02c.6,0,1.17-.28,1.55-.75ZM103.28,368.37c-.37.5-.49,1.15-.31,1.75.17.6.62,1.09,1.2,1.31,10.1,3.93,18.53,5.38,25.48,5.38,18.97,0,26.89-10.8,27.33-11.42.35-.49.46-1.12.29-1.7-.16-.58-.58-1.06-1.13-1.3-36.23-15.89-52.7,5.76-52.86,5.98ZM31.92,297.08c-.12.62.06,1.25.48,1.72,15.31,17.14,29.02,20.93,38.17,20.93,6.93,0,11.25-2.18,11.65-2.39.53-.28.91-.79,1.03-1.38.12-.59-.03-1.21-.42-1.67-25.1-30.58-49.59-18.75-49.84-18.62-.56.28-.95.81-1.07,1.42ZM.09,203.14c9.7,30.24,27.48,34.29,33.52,34.78,1.15.09,1.88.05,2.03.04.56-.04,1.08-.33,1.41-.79.33-.46.43-1.04.28-1.59C27.5,199.87,2.05,200.66,1.79,200.68c-.59.03-1.12.33-1.46.81-.33.48-.42,1.09-.25,1.65ZM12.22,250.7c-.27.57-.25,1.22.03,1.78,14.11,27.29,31.4,30.78,39.32,30.78,2.5,0,4.06-.35,4.3-.4.59-.14,1.08-.54,1.34-1.08.26-.54.27-1.18.01-1.73-16.68-35.87-43.35-30.52-43.62-30.46-.61.13-1.13.54-1.39,1.11ZM145.18,391.6c-.32.54-.37,1.2-.13,1.78.24.58.73,1.02,1.33,1.18,8.04,2.22,14.97,3.11,20.93,3.11,23.67,0,31.91-14.05,32.33-14.79.3-.53.34-1.16.12-1.72-.22-.56-.68-1-1.26-1.18-38.64-12.42-53.18,11.38-53.32,11.63ZM117.86,1.81c-.06-.62-.41-1.18-.94-1.51-.53-.33-1.19-.39-1.77-.17-35.17,13.38-32.83,36.24-32.71,37.21.07.6.41,1.14.92,1.46.33.21.7.31,1.08.31.21,0,.43-.03.64-.1C120.04,27.35,117.89,2.06,117.86,1.81ZM127.67,330.96c7.63-34.71-14.38-45.43-14.6-45.54-.57-.27-1.23-.25-1.78.04-.56.29-.94.82-1.05,1.43-6.3,35.73,13.8,45.09,14.65,45.47.26.12.54.17.82.17.31,0,.62-.07.91-.22.54-.27.93-.77,1.06-1.36ZM204.19,367.62c.15,0,.26,0,.3,0,.6-.03,1.16-.32,1.52-.81s.49-1.1.34-1.69c-8.61-34.48-33.11-34.28-33.34-34.29-.63.02-1.21.32-1.58.83s-.48,1.15-.3,1.75c9.73,33.03,30.19,34.21,33.05,34.21ZM165.27,352.83c.46-.39.73-.96.72-1.57-.44-35.53-24.31-40.99-24.55-41.04-.61-.13-1.25.03-1.73.44-.47.41-.73,1.01-.7,1.64,1.97,36.22,23.66,40.79,24.58,40.96.13.02.25.04.38.04.47,0,.93-.16,1.29-.47Z"/>
    </g>
  </g>
</svg>