<?xml version="1.0" encoding="UTF-8"?>
<svg id="Layer_2" xmlns="http://www.w3.org/2000/svg" viewBox="0 0 206.42 397.67">
  <defs>
    <style>
      .cls-1 {
        fill: #fff;
      }
    </style>
  </defs>
  <g id="_x2018_ëîé_x5F_1">
    <g id="Wreath2">
      <path class="cls-1" d="M165.77,192.76c-31.49-16.48-25.55-40.23-25.48-40.47.16-.6.6-1.1,1.17-1.34.58-.24,1.23-.2,1.78.12,31.41,18.15,25.66,39.56,25.4,40.46-.17.58-.59,1.06-1.14,1.29-.25.11-.52.16-.79.16-.32,0-.64-.08-.93-.23ZM154.91,235.19c.37.33.85.52,1.35.52.1,0,.2,0,.31-.02.6-.09,1.12-.45,1.43-.97.48-.81,11.35-20.13-14.58-45.49-.45-.44-1.07-.64-1.69-.55-.62.09-1.16.46-1.47,1.01-.12.21-11.76,21.76,14.67,45.52ZM119.93,82.43c-.62,0-1.21.29-1.59.78-.38.49-.52,1.14-.36,1.74.06.23,1.54,5.7,7.15,10.99,4.81,4.54,13.71,9.79,29.05,9.79.81,0,1.63-.01,2.48-.04.6-.02,1.17-.31,1.53-.79.37-.48.5-1.1.35-1.69-.2-.84-5.34-20.56-38.6-20.77h-.01ZM166.38,146.37c.1.01.19.02.29.02.5,0,.98-.19,1.36-.53.45-.41.68-.99.65-1.6-.05-.86-1.56-21.18-34.25-27.36-.61-.11-1.25.06-1.72.48s-.71,1.03-.66,1.65c.02.24.49,5.89,5.06,12.09,4.13,5.61,12.56,12.81,29.27,15.25ZM110.17,309.02c.21.07.42.1.63.1.38,0,.75-.11,1.08-.31.79-.5,19.29-12.72,7.8-47.13-.2-.59-.66-1.06-1.25-1.26-.59-.2-1.25-.12-1.77.22-.21.14-20.4,13.99-7.74,47.19.22.56.67,1,1.25,1.19ZM174.62,145.44c.1.6.47,1.11,1,1.41.3.17.64.26.98.26.25,0,.5-.05.74-.14.97-.38,23.71-9.82,18.4-49.87-.08-.62-.45-1.17-.99-1.48-.54-.31-1.2-.35-1.78-.11-.25.1-25.19,10.97-18.35,49.94ZM136.14,276.19c.35.5.9.81,1.5.86.05,0,.1,0,.15,0,.55,0,1.08-.22,1.46-.63.65-.68,15.63-17.02-3.86-47.62-.34-.53-.9-.87-1.52-.92-.63-.05-1.24.18-1.66.65-.17.18-16.4,18.51,3.93,47.66ZM175.19,191.07c-.02.6.23,1.19.68,1.58.37.32.84.5,1.33.5.11,0,.22,0,.33-.03,1.03-.17,25.23-4.7,28.32-44.98.05-.62-.2-1.23-.66-1.65-.47-.42-1.1-.59-1.71-.48-.27.05-26.91,5.52-28.28,45.06ZM165.29,104.12c.17.05.35.07.52.07.42,0,.83-.13,1.18-.38.79-.57,19.19-14.33,5.2-49.27-.23-.58-.72-1.02-1.32-1.19-.6-.17-1.25-.05-1.75.33-.2.15-20.25,15.71-5.14,49.32.25.55.73.96,1.31,1.12ZM139.86,65.36c.59-.15,1.07-.55,1.33-1.1.26-.55.25-1.18,0-1.72-.37-.78-9.52-18.99-42.09-12.25-.61.13-1.13.53-1.4,1.09-.27.56-.27,1.22.01,1.78.11.21,2.7,5.26,9.28,9.25,4.03,2.44,10.16,4.81,18.78,4.81,4.12,0,8.8-.54,14.09-1.87ZM144.04,332.25c-.22-.16-22.32-16.02-52.29,9.8-.46.39-.71.97-.7,1.58.02.6.3,1.17.78,1.54.45.35,6.51,4.86,17.04,4.86,8.82,0,20.78-3.16,35.22-14.59.49-.39.77-.98.76-1.61,0-.63-.31-1.21-.81-1.58ZM144.91,61.03h.02c.6,0,1.17-.27,1.55-.73.62-.75,14.98-18.69-7.33-49-.37-.5-.96-.81-1.58-.82-.63-.01-1.22.27-1.61.76-.16.2-15.66,20.29,7.41,49.03.38.47.95.75,1.55.75ZM50.27,362.4c-.55.24-.97.72-1.13,1.3-.16.58-.05,1.21.29,1.7.44.62,8.36,11.42,27.33,11.42,6.95,0,15.39-1.45,25.48-5.38.58-.23,1.03-.71,1.2-1.31.17-.6.06-1.25-.31-1.75-.16-.22-16.63-21.87-52.86-5.98ZM173.44,295.66c-.25-.12-24.73-11.96-49.84,18.62-.38.47-.54,1.08-.42,1.67.12.59.5,1.1,1.03,1.38.4.21,4.71,2.39,11.65,2.39,9.15,0,22.86-3.8,38.17-20.93.42-.47.59-1.1.48-1.72-.12-.61-.51-1.14-1.07-1.42ZM206.09,201.49c-.33-.48-.87-.78-1.46-.81-.26-.02-25.71-.81-35.53,34.9-.15.55-.05,1.13.28,1.59.33.46.84.75,1.41.79.16.01.88.05,2.03-.04,6.03-.48,23.82-4.54,33.52-34.78.18-.56.09-1.17-.25-1.65ZM192.81,249.59c-.27-.06-26.93-5.41-43.62,30.46-.25.55-.25,1.18.01,1.73.26.54.76.94,1.34,1.08.24.06,1.81.4,4.3.4,7.92,0,25.21-3.49,39.32-30.78.29-.56.3-1.21.03-1.78-.27-.57-.78-.98-1.39-1.11ZM7.92,379.98c-.57.19-1.04.62-1.26,1.18-.22.56-.18,1.19.12,1.72.42.74,8.66,14.79,32.33,14.79,5.96,0,12.89-.89,20.93-3.11.6-.17,1.09-.6,1.33-1.18.24-.58.19-1.24-.13-1.78-.14-.24-14.68-24.05-53.32-11.63ZM121.35,39c.21.07.42.1.64.1.38,0,.75-.11,1.08-.31.51-.32.85-.86.92-1.46.12-.97,2.46-23.82-32.71-37.21-.58-.22-1.24-.16-1.77.17-.53.33-.88.89-.94,1.51-.03.25-2.17,25.54,32.79,37.2ZM79.81,332.32c.29.14.6.22.91.22.28,0,.56-.06.82-.17.86-.38,20.96-9.74,14.65-45.47-.11-.62-.5-1.15-1.05-1.43-.55-.29-1.21-.3-1.78-.04-.22.1-22.23,10.83-14.6,45.54.13.59.52,1.09,1.06,1.36ZM35.28,333.41c.18-.6.06-1.25-.3-1.75-.37-.51-.95-.81-1.58-.83-.23.01-24.73-.19-33.34,34.29-.15.59-.02,1.21.34,1.69s.92.78,1.52.81c.05,0,.15,0,.3,0,2.86,0,23.32-1.18,33.05-34.21ZM42.44,353.3c.13,0,.25-.01.38-.04.92-.18,22.62-4.74,24.58-40.96.03-.63-.22-1.23-.7-1.64-.48-.41-1.11-.57-1.72-.44-.24.05-24.11,5.51-24.55,41.04,0,.6.26,1.18.72,1.57.36.31.82.47,1.29.47Z"/>
    </g>
  </g>
</svg>