<?xml version="1.0" encoding="UTF-8"?>
<svg id="Layer_2" xmlns="http://www.w3.org/2000/svg" viewBox="0 0 294.39 284.67">
  <defs>
    <style>
      .cls-1 {
        fill: #5870f6;
      }

      .cls-1, .cls-2, .cls-3 {
        fill-rule: evenodd;
      }

      .cls-2 {
        fill: #0ae8ed;
      }

      .cls-3 {
        fill: #0195ff;
      }
    </style>
  </defs>
  <g id="Layer_1-2" data-name="Layer_1">
    <path class="cls-3" d="M147.13,46.25l67.21,38.84.11,86.06c0,62.69-50.82,113.51-113.52,113.52-7.17,0-14.2-.67-21-1.94,38.98-20.62,65.86-61.07,67.2-107.91V46.25Z"/>
    <path class="cls-1" d="M67.2,92.39l67.21,38.85.11,39.91c0,62.69-50.83,113.51-113.52,113.52-7.17,0-14.2-.67-21-1.94,38.98-20.62,65.86-61.07,67.2-107.91v-82.42Z"/>
    <path class="cls-2" d="M227.07,0l67.21,38.83.11,132.32c0,62.69-50.83,113.51-113.52,113.52-7.17,0-14.2-.67-21-1.94,38.98-20.62,65.86-61.07,67.2-107.91V0Z"/>
  </g>
</svg>